<svg width="10" height="10" viewBox="0 0 10 10" fill="none" xmlns="http://www.w3.org/2000/svg">
<path fill-rule="evenodd" clip-rule="evenodd" d="M4.99975 1.1602C4.16231 1.1602 3.48344 1.83907 3.48344 2.6765C3.48344 3.51393 4.16231 4.19281 4.99975 4.19281C5.83719 4.19281 6.51607 3.51393 6.51607 2.6765C6.51607 1.83907 5.83719 1.1602 4.99975 1.1602ZM2.74023 2.6765C2.74023 1.42861 3.75186 0.416992 4.99975 0.416992C6.24765 0.416992 7.25927 1.42861 7.25927 2.6765C7.25927 3.9244 6.24765 4.93601 4.99975 4.93601C3.75186 4.93601 2.74023 3.9244 2.74023 2.6765Z" fill="#3A3845"/>
<path fill-rule="evenodd" clip-rule="evenodd" d="M2.16526 6.46565C2.84434 6.06029 3.76312 5.79028 4.99981 5.79028C6.2365 5.79028 7.15527 6.06029 7.83435 6.46565C8.51372 6.87118 8.93149 7.39922 9.18602 7.88112L9.18603 7.88115C9.41379 8.31245 9.33926 8.75994 9.08075 9.08456C8.83209 9.39682 8.42736 9.58319 7.99288 9.58319H2.00673C1.57225 9.58319 1.16752 9.39682 0.91886 9.08456C0.660342 8.75992 0.585829 8.31243 0.813616 7.88113C1.06813 7.39923 1.48589 6.87118 2.16526 6.46565ZM2.54619 7.10381C2.00145 7.42897 1.67196 7.84732 1.4708 8.22821L1.4708 8.22822C1.38881 8.38345 1.41489 8.51441 1.50024 8.62159C1.59546 8.74116 1.77787 8.83998 2.00673 8.83998H7.99288C8.22173 8.83998 8.40414 8.74116 8.49936 8.62159C8.58472 8.5144 8.61081 8.38344 8.52885 8.22822C8.32766 7.84732 7.99816 7.42897 7.45342 7.10381C6.90839 6.77847 6.12621 6.53349 4.99981 6.53349C3.87341 6.53349 3.09122 6.77847 2.54619 7.10381Z" fill="#3A3845"/>
</svg>
